<?xml version="1.0" standalone="no"?><!DOCTYPE svg PUBLIC "-//W3C//DTD SVG 1.1//EN" "http://www.w3.org/Graphics/SVG/1.1/DTD/svg11.dtd"><svg t="1731651382317" class="icon" viewBox="0 0 1024 1024" version="1.1" xmlns="http://www.w3.org/2000/svg" p-id="5274" xmlns:xlink="http://www.w3.org/1999/xlink" width="256" height="256"><path d="M995.555556 170.666667H28.444444a28.444444 28.444444 0 0 0-28.444444 28.444444v56.888889a28.444444 28.444444 0 0 0 28.444444 28.444444H56.888889v625.777778a113.777778 113.777778 0 0 0 113.777778 113.777778h682.666666a113.777778 113.777778 0 0 0 113.777778-113.777778V284.444444h28.444445a28.444444 28.444444 0 0 0 28.444444-28.444444v-56.888889a28.444444 28.444444 0 0 0-28.444444-28.444444zM853.333333 853.333333a56.888889 56.888889 0 0 1-56.888889 56.888889H227.555556a56.888889 56.888889 0 0 1-56.888889-56.888889V284.444444h682.666666v568.888889zM369.777778 113.777778h284.444444a28.444444 28.444444 0 0 0 28.444445-28.444445v-56.888889a28.444444 28.444444 0 0 0-28.444445-28.444444h-284.444444a28.444444 28.444444 0 0 0-28.444445 28.444444v56.888889a28.444444 28.444444 0 0 0 28.444445 28.444445z" fill="#1E2330" p-id="5275"></path><path d="M597.333333 796.444444h56.888889c15.644444 0 28.444444-12.8 28.444445-28.444444v-341.333333a28.444444 28.444444 0 0 0-28.444445-28.444445h-56.888889a28.444444 28.444444 0 0 0-28.444444 28.444445v341.333333c0 15.644444 12.8 28.444444 28.444444 28.444444zM369.777778 796.444444h56.888889a28.444444 28.444444 0 0 0 28.444444-28.444444v-341.333333a28.444444 28.444444 0 0 0-28.444444-28.444445h-56.888889a28.444444 28.444444 0 0 0-28.444445 28.444445v341.333333a28.444444 28.444444 0 0 0 28.444445 28.444444z" fill="#1E2330" p-id="5276"></path></svg>