<?xml version="1.0" standalone="no"?><!DOCTYPE svg PUBLIC "-//W3C//DTD SVG 1.1//EN" "http://www.w3.org/Graphics/SVG/1.1/DTD/svg11.dtd"><svg t="1731651365439" class="icon" viewBox="0 0 1024 1024" version="1.1" xmlns="http://www.w3.org/2000/svg" p-id="4280" xmlns:xlink="http://www.w3.org/1999/xlink" width="256" height="256"><path d="M379.733333 806.4c-8.533333 0-17.066667-4.266667-23.466666-8.533333L198.4 640c-12.8-12.8-12.8-32 0-44.8L718.933333 72.533333c12.8-12.8 34.133333-12.8 44.8 0l157.866667 157.866667c6.4 6.4 10.666667 14.933333 10.666667 23.466667s-4.266667 17.066667-10.666667 23.466666L401.066667 797.866667c-6.4 6.4-12.8 8.533333-21.333334 8.533333z m-113.066666-189.866667l113.066666 113.066667L853.333333 253.866667l-113.066666-113.066667-473.6 475.733333zM96 932.266667c-8.533333 0-17.066667-4.266667-23.466667-8.533334-8.533333-8.533333-10.666667-19.2-8.533333-29.866666l57.6-215.466667c2.133333-10.666667 10.666667-19.2 23.466667-23.466667 10.666667-2.133333 23.466667 0 32 8.533334l157.866666 157.866666c8.533333 8.533333 10.666667 19.2 8.533334 32s-10.666667 19.2-23.466667 23.466667L104.533333 930.133333c-2.133333 0-6.4 2.133333-8.533333 2.133334zM168.533333 746.666667l-27.733333 108.8 108.8-27.733334L168.533333 746.666667z" fill="#212121" p-id="4281"></path></svg>